<svg width="524" height="106" viewBox="0 0 524 106" fill="none" xmlns="http://www.w3.org/2000/svg">
    <path fill-rule="evenodd" clip-rule="evenodd" d="M317.45 26.0001C308.35 24.0001 299.05 36.0001 296.15 50.9401C293.34 65.3601 290.53 68.9401 286.76 72.3101C284.54 74.3101 282.17 74.0001 281.15 74.4601C279.88 69.9801 278.91 64.8001 278.15 61.0601C276.49 52.4301 275.15 51.2901 274.01 51.1901C272.631 51.3004 271.279 51.6383 270.01 52.1901C272.01 50.7901 274.92 48.7101 277.76 46.6501C281.96 43.6501 283.76 41.1401 285.34 37.7701C286.62 35.0001 291.34 36.1101 291.01 35.3001C290.18 32.8701 285.61 31.7401 281.01 34.0501C277.71 35.7001 276.01 38.5701 273.74 43.0501C271.74 47.0501 270.74 50.8301 267.9 53.0501C267.17 53.6201 266.22 53.9501 265.95 54.3401C265.45 55.0401 267.27 56.5301 268.09 59.9901C269.17 64.5501 269.81 73.7601 271.09 78.0701C273.77 87.0701 279.22 89.4501 283.17 89.4501C287.12 89.4501 289.85 87.9501 289.3 87.0001C288.75 86.0501 285.89 85.5001 283.44 80.7301C282.833 79.4954 282.315 78.2188 281.89 76.9101C283.359 78.3605 285.2 79.3777 287.21 79.8501C289.98 80.3901 294.74 80.8501 298.42 72.2701C301.42 65.1901 300.36 59.1401 303.48 43.4301C305.92 31.1701 311.71 28.4301 314.75 27.6101C313.478 29.1825 312.447 30.9349 311.69 32.8101C308.02 41.7001 306.29 58.5401 309.04 71.9901C312.17 87.2801 320.98 88.5101 326.1 87.6501C327.87 87.3501 318.94 73.4601 317.24 55.4801C315.48 36.9501 318.56 26.2601 317.45 26.0101V26.0001ZM271.51 24.6501C271.88 24.8701 270.59 27.7801 269.51 32.4301C267.73 40.1401 264.23 51.0001 262.26 70.5501C260.45 88.6101 261.42 93.4001 260.36 93.2601C255.22 92.5701 253.11 78.4901 253.43 62.8801C253.72 49.3801 256.02 36.6201 261.99 28.3401C265.54 23.4701 270.9 24.3101 271.51 24.6901V24.6501Z" fill="#4190F7"/>
    <path fill-rule="evenodd" clip-rule="evenodd" d="M477.742 24.6901C477.132 24.3101 471.742 23.4701 468.222 28.3801C462.222 36.6601 459.952 49.3801 459.662 62.9201C459.332 78.5301 461.442 92.61 466.592 93.3C467.652 93.44 466.672 88.65 468.492 70.59C470.492 51.0401 473.962 40.1801 475.742 32.4701C476.822 27.8201 478.112 24.9101 477.742 24.6901Z" fill="#4190F7"/>
    <path fill-rule="evenodd" clip-rule="evenodd" d="M489.672 80.7601C487.222 75.9901 485.532 66.8401 484.422 61.1001C482.762 52.4701 481.422 51.3301 480.292 51.2301C478.913 51.3403 477.561 51.6782 476.292 52.2301C478.292 50.8301 481.192 48.7501 484.042 46.6901C488.252 43.6901 490.042 41.1801 491.632 37.8101C492.902 35.0401 497.632 36.1501 497.302 35.3401C496.462 32.9101 491.892 31.7801 487.302 34.0901C484.002 35.7401 482.302 38.6101 480.032 43.0901C478.032 47.0901 477.032 50.8701 474.202 53.0901C473.462 53.6601 472.512 53.9901 472.202 54.3801C471.702 55.0801 473.532 56.5701 474.342 60.0301C475.422 64.5901 476.072 73.8001 477.342 78.1101C480.022 87.1101 485.472 89.4901 489.422 89.4901C493.372 89.4901 496.102 87.9901 495.562 87.0401C495.022 86.0901 492.132 85.5301 489.672 80.7601Z" fill="#4190F7"/>
    <path fill-rule="evenodd" clip-rule="evenodd" d="M346.541 31.22C342.111 31.34 338.201 33.69 335.211 36.89C332.221 40.09 332.411 44.74 333.361 45.33C335.181 46.47 340.461 42.86 341.491 41.33C342.521 39.8 341.721 32.41 345.311 33.2C346.721 33.51 345.511 43.13 345.061 43.77C344.291 44.84 332.821 54.77 328.681 62.42C324.961 69.32 324.461 80.3 330.161 82.42C334.161 83.93 337.941 81.55 340.851 77.79C343.301 74.64 344.461 69.34 343.801 69.03C343.141 68.72 340.801 74.16 338.651 73.89C337.101 73.69 335.311 68.21 337.581 60.38C339.113 55.4095 341.584 50.7791 344.861 46.74C344.579 52.3603 344.68 57.9933 345.161 63.6C346.321 76.74 350.811 82.11 352.441 81.96C353.341 81.88 353.321 79.64 354.311 74.21C355.99 64.219 356.31 54.0467 355.261 43.97C354.151 33.14 350.251 31.12 346.541 31.22Z" fill="#4190F7"/>
    <path fill-rule="evenodd" clip-rule="evenodd" d="M522.753 44C521.633 33.15 517.753 31.13 514.033 31.23C509.603 31.35 505.693 33.7 502.703 36.9C499.713 40.1 499.903 44.75 500.853 45.34C502.673 46.48 507.963 42.87 508.983 41.34C510.003 39.81 509.203 32.42 512.803 33.21C514.213 33.52 513.003 43.14 512.553 43.78C511.783 44.85 500.303 54.78 496.173 62.43C492.463 69.33 491.953 80.31 497.653 82.43C501.653 83.94 505.433 81.56 508.343 77.8C510.793 74.65 511.953 69.35 511.343 69.04C510.733 68.73 508.343 74.17 506.183 73.9C504.643 73.7 502.853 68.22 505.123 60.39C506.655 55.4195 509.126 50.7891 512.403 46.75C512.121 52.3703 512.222 58.0033 512.703 63.61C513.863 76.75 518.353 82.12 519.983 81.97C520.873 81.89 520.863 79.65 521.843 74.22C523.519 64.2349 523.825 54.0679 522.753 44Z" fill="#4190F7"/>
    <path fill-rule="evenodd" clip-rule="evenodd" d="M454.68 36.9401C446.47 36.2601 443.33 41.74 441.82 48.18C440.04 55.73 440.7 64.07 440.73 66.25C440.76 68.43 437.73 74.0701 435.58 73.8901C430.92 73.5101 430.11 59.01 431.58 49.15C434.28 31.2 438.06 28.0701 437.16 27.8201C432.16 26.4501 423.64 37.6101 420.38 52.8801C417.51 66.3001 419.23 78.24 426.38 81.71C430.22 83.56 434.2 81.47 437.38 77.96C439.144 75.9395 440.551 73.6332 441.54 71.1401C443.16 80.8201 452.17 85.33 453.48 84.68C454.6 84.11 451.26 80.68 450.35 71.68C449.538 63.1408 450.014 54.5281 451.76 46.1301C453.59 37.4201 456.06 37.0501 454.68 36.9401Z" fill="#4190F7"/>
    <path fill-rule="evenodd" clip-rule="evenodd" d="M118.611 36.9401C110.391 36.2601 107.261 41.74 105.741 48.18C103.961 55.73 104.631 64.07 104.661 66.25C104.691 68.43 101.661 74.0701 99.5113 73.8901C94.8513 73.5101 94.0413 59.01 95.5113 49.15C98.2213 31.2 102.001 28.0701 101.101 27.8201C96.1013 26.4501 87.5813 37.6101 84.3213 52.8801C81.4513 66.3001 83.1713 78.24 90.3213 81.71C94.1713 83.56 98.1513 81.47 101.321 77.96C103.082 75.937 104.488 73.6313 105.481 71.1401C107.091 80.8201 116.111 85.33 117.411 84.68C118.541 84.11 115.201 80.68 114.281 71.68C113.475 63.1407 113.95 54.5288 115.691 46.1301C117.511 37.4201 120.001 37.0501 118.611 36.9401Z" fill="#4190F7"/>
    <path fill-rule="evenodd" clip-rule="evenodd" d="M223.003 30.0601C223.003 28.3501 222.643 28.3401 221.583 28.5701C220.758 28.7948 219.979 29.1638 219.283 29.6601C218.619 30.2248 217.831 30.6255 216.983 30.8301C216.283 30.8301 209.193 27.4801 204.073 28.0901C198.953 28.7001 196.473 32.7801 197.343 37.8401C198.213 42.9001 206.623 46.4301 206.623 46.4301C206.623 46.4301 201.233 44.9501 198.903 54.1301C197.533 59.5301 194.063 70.3801 190.763 74.7801C189.276 76.7991 187.364 78.4681 185.163 79.6701C185.373 78.4301 185.613 76.6701 186.053 74.2301C187.733 64.2425 188.052 54.0735 187.003 44.0001C185.883 33.1501 182.003 31.1301 178.283 31.2301C173.853 31.3501 169.933 33.7001 166.953 36.9001C163.973 40.1001 164.153 44.7501 165.093 45.3401C166.923 46.4801 172.203 42.8701 173.233 41.3401C174.263 39.8101 173.453 32.4201 177.043 33.2101C178.463 33.5201 177.253 43.1401 176.793 43.7801C176.033 44.8501 164.553 54.7801 160.423 62.4301C156.703 69.3301 156.203 80.3101 161.903 82.4301C165.903 83.9401 169.683 81.5601 172.593 77.8001C175.033 74.6501 176.193 69.3501 175.543 69.0401C174.893 68.7301 172.543 74.1701 170.383 73.9001C168.833 73.7001 167.053 68.2201 169.323 60.3901C170.851 55.4178 173.322 50.7865 176.603 46.7501C176.321 52.3704 176.422 58.0034 176.903 63.6101C177.993 76.0401 182.073 81.5101 183.903 81.9501C185.635 82.5966 187.476 82.8956 189.323 82.8301C195.273 82.8301 202.803 78.2601 205.183 69.2401C208.183 58.0301 211.853 47.6001 210.423 46.4901C208.753 45.2001 202.663 39.2301 205.423 33.4401C206.993 30.1301 214.953 32.0801 215.533 33.3401C215.743 33.8001 214.843 36.4901 214.323 38.2901C212.632 44.4935 211.974 50.9328 212.373 57.3501C213.193 72.8801 217.833 85.9801 223.033 85.6101C224.823 85.4801 224.243 74.6601 223.703 56.6101C223.133 37.7501 223.053 31.6501 223.003 30.0601Z" fill="#4190F7"/>
    <path fill-rule="evenodd" clip-rule="evenodd" d="M40.7817 50.0001C38.5024 46.3634 37.064 42.2636 36.5717 38.0001C35.7117 30.9501 36.6617 26.4701 34.2417 24.3801C30.8317 21.4301 20.9917 23.3801 20.3817 26.4401C20.1717 27.4401 23.3017 25.8201 24.2417 29.3501C25.5793 34.2736 27.5989 38.9859 30.2417 43.3501C32.2062 46.2653 34.8892 48.6246 38.0317 50.2001C35.4209 50.7062 32.9691 51.83 30.8815 53.4775C28.7938 55.125 27.1309 57.2484 26.0317 59.6701C22.0317 68.5301 21.4217 76.6701 17.1917 82.9201C12.6117 89.7101 7.26174 90.7401 4.34174 89.1201C1.42174 87.5001 2.00174 86.2101 0.511741 86.2801C-0.978259 86.3501 0.801741 96.2801 7.40174 99.9301C11.0817 101.93 22.1617 104.05 28.6017 89.4301C34.7217 75.5101 34.2717 64.4301 35.5417 58.1901C36.6817 52.5101 40.6917 51.3201 40.9417 50.9301C41.0717 50.7401 41.1117 50.5301 40.7817 50.0101V50.0001ZM75.1717 91.4001C72.4217 84.9201 71.7317 69.1301 71.5517 61.2901C71.2417 47.9601 66.8017 48.5501 66.8017 48.5501C65.5616 48.6504 64.3311 48.8477 63.1217 49.1401C66.0617 47.5301 70.4017 44.6201 72.3217 40.7001C75.3217 34.6101 72.8117 27.5301 75.3217 27.9501C77.3217 28.2801 78.8317 29.8901 78.8117 33.4301C78.8117 36.1401 77.5817 37.1001 78.2517 37.5001C78.9217 37.9001 85.5717 37.3001 86.6417 31.8201C87.4917 27.4701 85.5017 24.2801 82.6417 23.3801C78.1817 21.9601 73.1317 25.0301 70.4817 30.2201C68.4817 34.1401 67.4817 37.7801 66.2217 40.8601C64.4317 45.2101 63.3917 48.2301 60.5117 49.9601C59.7062 50.3163 58.9473 50.7697 58.2517 51.3101C57.3517 52.4701 57.8417 72.8401 60.1817 82.7301C63.0017 94.8701 69.0017 102.57 76.3017 102.37C81.0317 102.24 84.3617 101.31 83.7417 100.01C83.1217 98.7101 77.9317 97.8901 75.1717 91.4101V91.4001ZM61.9117 2.23008C62.9817 0.770077 66.7317 -2.96995 64.5217 5.11005C62.5217 12.4401 59.4217 27.9801 54.7817 58.8901C50.3317 88.5601 47.9417 106.42 45.9317 105.89C40.0917 104.32 38.6317 81.0401 42.0617 55.4201C45.0717 32.8701 56.1217 10.1601 61.9117 2.23008Z" fill="#4190F7"/>
    <path fill-rule="evenodd" clip-rule="evenodd" d="M151.652 28.8201C156.762 19.5201 154.302 12.8201 149.162 12.2701C143.332 11.6201 138.492 15.6101 133.562 24.9201C128.131 34.7962 124.81 45.6932 123.812 56.9201C122.392 71.0301 123.652 79.1201 126.712 83.1601C128.982 86.3001 131.612 87.9201 137.232 86.2301C144.972 83.9201 153.982 74.2301 154.392 63.0401C154.792 52.1301 149.962 45.2301 147.012 44.2001C144.062 43.1701 136.582 47.4401 137.122 48.0301C140.772 51.9401 144.322 56.9401 144.972 64.1101C145.972 74.9101 142.572 81.6801 138.212 82.8601C133.852 84.0401 133.212 78.0501 134.142 63.8601C135.012 50.3701 136.842 36.2501 139.652 25.5201C142.932 13.0501 146.222 13.8501 147.712 17.2501C150.262 23.0701 138.552 40.2501 138.712 40.6901C139.412 42.0501 148.422 34.6901 151.652 28.8201Z" fill="#4190F7"/>
    <path fill-rule="evenodd" clip-rule="evenodd" d="M417.442 67.5401C416.332 66.7301 410.442 75.0801 404.222 75.0801C402.222 75.0801 399.222 69.4701 400.002 56.4601C400.232 52.7901 401.602 43.1201 403.342 38.9401C405.082 34.7601 406.042 33.5601 408.062 33.6201C409.772 33.6701 410.632 36.2301 410.222 39.1101C409.982 40.7801 409.562 43.6901 409.952 44.2701C410.342 44.8501 415.452 43.0001 416.192 39.6301C416.477 38.6065 416.52 37.5305 416.318 36.4872C416.116 35.4439 415.674 34.4619 415.027 33.6189C414.38 32.7759 413.546 32.0951 412.59 31.6301C411.635 31.1652 410.584 30.929 409.521 30.9401C407.584 30.8891 405.676 31.4184 404.042 32.4601C398.212 35.9201 391.521 43.7401 388.651 56.2501C387.82 59.7724 387.41 63.3811 387.431 67.0001C384.981 69.1001 381.751 71.4901 378.431 71.4901C376.431 71.4901 373.431 65.8701 374.211 52.8601C374.431 49.1901 375.811 39.5201 377.551 35.3501C379.291 31.1801 380.251 29.9601 382.271 30.0301C383.981 30.0801 384.841 32.6401 384.431 35.5101C384.191 37.1901 383.772 40.0901 384.162 40.6701C384.552 41.2501 389.661 39.4001 390.401 36.0401C390.687 35.0157 390.731 33.9388 390.528 32.8947C390.325 31.8507 389.882 30.8681 389.234 30.0249C388.586 29.1817 387.75 28.501 386.794 28.0368C385.837 27.5725 384.785 27.3374 383.722 27.3501C381.788 27.2951 379.883 27.8211 378.252 28.8601C372.422 32.3201 365.731 40.1501 362.861 52.6601C359.991 65.1701 362.001 77.0001 370.111 78.3001C376.931 79.4401 383.111 75.5501 387.741 70.9701C388.601 76.8601 391.261 81.1501 395.931 81.9701C403.281 83.1901 409.931 78.5801 414.611 73.5601C417.001 70.9301 418.552 68.3401 417.442 67.5401Z" fill="#4190F7"/>
</svg>
